<mxfile host="app.diagrams.net" modified="2023-07-20T08:48:08.887Z" agent="Mozilla/5.0 (Windows NT 10.0; Win64; x64) AppleWebKit/537.36 (KHTML, like Gecko) Chrome/114.0.0.0 Safari/537.36" etag="xoe9S9QEuKtES9zIHGNV" version="21.6.3" type="github">
  <diagram name="Pagina-1" id="AnAQSOxddA6F3hFpx0O1">
    <mxGraphModel dx="1249" dy="566" grid="1" gridSize="10" guides="1" tooltips="1" connect="1" arrows="1" fold="1" page="1" pageScale="1" pageWidth="1169" pageHeight="827" math="0" shadow="0">
      <root>
        <mxCell id="0" />
        <mxCell id="1" parent="0" />
        <mxCell id="NYhL4l01NYYZqgJUPMba-5" style="edgeStyle=orthogonalEdgeStyle;rounded=0;orthogonalLoop=1;jettySize=auto;html=1;entryX=0.5;entryY=0;entryDx=0;entryDy=0;" parent="1" source="NYhL4l01NYYZqgJUPMba-2" target="NYhL4l01NYYZqgJUPMba-4" edge="1">
          <mxGeometry relative="1" as="geometry" />
        </mxCell>
        <mxCell id="NYhL4l01NYYZqgJUPMba-2" value="Task: idle_waitMossa&lt;br&gt;Delay: 1 second&lt;br&gt;Function: checkidle_waitMossa" style="whiteSpace=wrap;html=1;" parent="1" vertex="1">
          <mxGeometry x="760" y="151" width="170" height="60" as="geometry" />
        </mxCell>
        <mxCell id="NYhL4l01NYYZqgJUPMba-8" style="edgeStyle=orthogonalEdgeStyle;rounded=0;orthogonalLoop=1;jettySize=auto;html=1;entryX=0.5;entryY=0;entryDx=0;entryDy=0;" parent="1" source="NYhL4l01NYYZqgJUPMba-4" target="NYhL4l01NYYZqgJUPMba-7" edge="1">
          <mxGeometry relative="1" as="geometry" />
        </mxCell>
        <mxCell id="NYhL4l01NYYZqgJUPMba-4" value="update_currentLight()" style="rounded=1;whiteSpace=wrap;html=1;" parent="1" vertex="1">
          <mxGeometry x="785" y="251" width="120" height="60" as="geometry" />
        </mxCell>
        <mxCell id="NYhL4l01NYYZqgJUPMba-9" style="edgeStyle=orthogonalEdgeStyle;rounded=0;orthogonalLoop=1;jettySize=auto;html=1;entryX=1;entryY=0.5;entryDx=0;entryDy=0;" parent="1" source="NYhL4l01NYYZqgJUPMba-7" target="NYhL4l01NYYZqgJUPMba-2" edge="1">
          <mxGeometry relative="1" as="geometry">
            <Array as="points">
              <mxPoint x="950" y="381" />
              <mxPoint x="950" y="181" />
            </Array>
          </mxGeometry>
        </mxCell>
        <mxCell id="NYhL4l01NYYZqgJUPMba-28" value="False" style="edgeLabel;html=1;align=center;verticalAlign=middle;resizable=0;points=[];" parent="NYhL4l01NYYZqgJUPMba-9" vertex="1" connectable="0">
          <mxGeometry x="-0.0347" y="-2" relative="1" as="geometry">
            <mxPoint as="offset" />
          </mxGeometry>
        </mxCell>
        <mxCell id="NYhL4l01NYYZqgJUPMba-19" style="edgeStyle=orthogonalEdgeStyle;rounded=0;orthogonalLoop=1;jettySize=auto;html=1;entryX=0.5;entryY=0;entryDx=0;entryDy=0;" parent="1" source="NYhL4l01NYYZqgJUPMba-7" target="NYhL4l01NYYZqgJUPMba-11" edge="1">
          <mxGeometry relative="1" as="geometry" />
        </mxCell>
        <mxCell id="NYhL4l01NYYZqgJUPMba-29" value="True" style="edgeLabel;html=1;align=center;verticalAlign=middle;resizable=0;points=[];" parent="NYhL4l01NYYZqgJUPMba-19" vertex="1" connectable="0">
          <mxGeometry x="0.3709" y="1" relative="1" as="geometry">
            <mxPoint as="offset" />
          </mxGeometry>
        </mxCell>
        <mxCell id="NYhL4l01NYYZqgJUPMba-7" value="isCovered()" style="rhombus;whiteSpace=wrap;html=1;" parent="1" vertex="1">
          <mxGeometry x="795" y="341" width="100" height="80" as="geometry" />
        </mxCell>
        <mxCell id="5h5dNytYStfbMjqQYCe1-4" style="edgeStyle=orthogonalEdgeStyle;rounded=0;orthogonalLoop=1;jettySize=auto;html=1;entryX=0.5;entryY=0;entryDx=0;entryDy=0;" parent="1" source="NYhL4l01NYYZqgJUPMba-11" target="5h5dNytYStfbMjqQYCe1-3" edge="1">
          <mxGeometry relative="1" as="geometry">
            <Array as="points">
              <mxPoint x="845" y="531" />
              <mxPoint x="936" y="531" />
              <mxPoint x="936" y="530" />
              <mxPoint x="995" y="530" />
            </Array>
          </mxGeometry>
        </mxCell>
        <mxCell id="5h5dNytYStfbMjqQYCe1-5" style="edgeStyle=orthogonalEdgeStyle;rounded=0;orthogonalLoop=1;jettySize=auto;html=1;entryX=0.5;entryY=0;entryDx=0;entryDy=0;" parent="1" source="NYhL4l01NYYZqgJUPMba-11" target="5h5dNytYStfbMjqQYCe1-2" edge="1">
          <mxGeometry relative="1" as="geometry" />
        </mxCell>
        <mxCell id="NYhL4l01NYYZqgJUPMba-11" value="disable_idle_waitMossa()" style="rounded=1;whiteSpace=wrap;html=1;" parent="1" vertex="1">
          <mxGeometry x="773.75" y="451" width="142.5" height="60" as="geometry" />
        </mxCell>
        <mxCell id="5h5dNytYStfbMjqQYCe1-10" style="edgeStyle=orthogonalEdgeStyle;rounded=0;orthogonalLoop=1;jettySize=auto;html=1;entryX=0.5;entryY=0;entryDx=0;entryDy=0;" parent="1" source="NYhL4l01NYYZqgJUPMba-13" target="5h5dNytYStfbMjqQYCe1-9" edge="1">
          <mxGeometry relative="1" as="geometry" />
        </mxCell>
        <mxCell id="NYhL4l01NYYZqgJUPMba-13" value="readSegno()" style="rounded=1;whiteSpace=wrap;html=1;" parent="1" vertex="1">
          <mxGeometry x="934" y="640" width="120" height="60" as="geometry" />
        </mxCell>
        <mxCell id="NYhL4l01NYYZqgJUPMba-22" style="edgeStyle=orthogonalEdgeStyle;rounded=0;orthogonalLoop=1;jettySize=auto;html=1;entryX=0.5;entryY=0;entryDx=0;entryDy=0;" parent="1" source="NYhL4l01NYYZqgJUPMba-16" target="NYhL4l01NYYZqgJUPMba-21" edge="1">
          <mxGeometry relative="1" as="geometry" />
        </mxCell>
        <mxCell id="NYhL4l01NYYZqgJUPMba-16" value="Task:&amp;nbsp;idle_waitButton&lt;br&gt;Delay: 1 second&lt;br&gt;Function: checkButtons()" style="whiteSpace=wrap;html=1;" parent="1" vertex="1">
          <mxGeometry x="776.9" y="1290" width="155" height="60" as="geometry" />
        </mxCell>
        <mxCell id="NYhL4l01NYYZqgJUPMba-26" style="edgeStyle=orthogonalEdgeStyle;rounded=0;orthogonalLoop=1;jettySize=auto;html=1;entryX=0.5;entryY=0;entryDx=0;entryDy=0;" parent="1" source="NYhL4l01NYYZqgJUPMba-21" target="NYhL4l01NYYZqgJUPMba-25" edge="1">
          <mxGeometry relative="1" as="geometry" />
        </mxCell>
        <mxCell id="NYhL4l01NYYZqgJUPMba-21" value="checkButtons()" style="rounded=1;whiteSpace=wrap;html=1;" parent="1" vertex="1">
          <mxGeometry x="794.4" y="1380" width="120" height="60" as="geometry" />
        </mxCell>
        <mxCell id="NYhL4l01NYYZqgJUPMba-27" style="edgeStyle=orthogonalEdgeStyle;rounded=0;orthogonalLoop=1;jettySize=auto;html=1;entryX=1;entryY=0.5;entryDx=0;entryDy=0;" parent="1" source="NYhL4l01NYYZqgJUPMba-25" target="NYhL4l01NYYZqgJUPMba-16" edge="1">
          <mxGeometry relative="1" as="geometry">
            <Array as="points">
              <mxPoint x="959.4" y="1530" />
              <mxPoint x="959.4" y="1320" />
            </Array>
          </mxGeometry>
        </mxCell>
        <mxCell id="NYhL4l01NYYZqgJUPMba-31" value="False" style="edgeLabel;html=1;align=center;verticalAlign=middle;resizable=0;points=[];" parent="NYhL4l01NYYZqgJUPMba-27" vertex="1" connectable="0">
          <mxGeometry x="-0.1303" y="-4" relative="1" as="geometry">
            <mxPoint x="-4" as="offset" />
          </mxGeometry>
        </mxCell>
        <mxCell id="5h5dNytYStfbMjqQYCe1-46" style="edgeStyle=orthogonalEdgeStyle;rounded=0;orthogonalLoop=1;jettySize=auto;html=1;entryX=0.5;entryY=0;entryDx=0;entryDy=0;" parent="1" source="NYhL4l01NYYZqgJUPMba-25" target="5h5dNytYStfbMjqQYCe1-43" edge="1">
          <mxGeometry relative="1" as="geometry" />
        </mxCell>
        <mxCell id="9bgy6oww_hd9w5Q3UkcD-10" value="true" style="edgeLabel;html=1;align=center;verticalAlign=middle;resizable=0;points=[];" vertex="1" connectable="0" parent="5h5dNytYStfbMjqQYCe1-46">
          <mxGeometry x="-0.1709" y="2" relative="1" as="geometry">
            <mxPoint as="offset" />
          </mxGeometry>
        </mxCell>
        <mxCell id="NYhL4l01NYYZqgJUPMba-25" value="sasso==1 XOR&lt;br&gt;&amp;nbsp;forbice ==1 XOR&lt;br&gt;&amp;nbsp;carta==1" style="rhombus;whiteSpace=wrap;html=1;" parent="1" vertex="1">
          <mxGeometry x="770.65" y="1490" width="167.5" height="80" as="geometry" />
        </mxCell>
        <mxCell id="NYhL4l01NYYZqgJUPMba-39" style="edgeStyle=orthogonalEdgeStyle;rounded=0;orthogonalLoop=1;jettySize=auto;html=1;" parent="1" source="NYhL4l01NYYZqgJUPMba-32" edge="1">
          <mxGeometry relative="1" as="geometry">
            <mxPoint x="770" y="1820" as="targetPoint" />
          </mxGeometry>
        </mxCell>
        <mxCell id="NYhL4l01NYYZqgJUPMba-32" value="Task:&amp;nbsp;restart_idle_waitMossa&lt;br&gt;Time: 1 per second (in realtÃ  once)&lt;br&gt;Function: restart()" style="whiteSpace=wrap;html=1;" parent="1" vertex="1">
          <mxGeometry x="670" y="1720" width="200" height="60" as="geometry" />
        </mxCell>
        <mxCell id="NYhL4l01NYYZqgJUPMba-38" style="edgeStyle=orthogonalEdgeStyle;rounded=0;orthogonalLoop=1;jettySize=auto;html=1;entryX=0.5;entryY=0;entryDx=0;entryDy=0;" parent="1" target="NYhL4l01NYYZqgJUPMba-37" edge="1">
          <mxGeometry relative="1" as="geometry">
            <mxPoint x="770" y="1880" as="sourcePoint" />
          </mxGeometry>
        </mxCell>
        <mxCell id="NYhL4l01NYYZqgJUPMba-40" style="edgeStyle=orthogonalEdgeStyle;rounded=0;orthogonalLoop=1;jettySize=auto;html=1;entryX=0.5;entryY=0;entryDx=0;entryDy=0;" parent="1" source="NYhL4l01NYYZqgJUPMba-37" target="NYhL4l01NYYZqgJUPMba-2" edge="1">
          <mxGeometry relative="1" as="geometry">
            <Array as="points">
              <mxPoint x="630" y="1960" />
              <mxPoint x="630" y="111" />
              <mxPoint x="845" y="111" />
            </Array>
          </mxGeometry>
        </mxCell>
        <mxCell id="NYhL4l01NYYZqgJUPMba-37" value="disable_restart()" style="rounded=1;whiteSpace=wrap;html=1;" parent="1" vertex="1">
          <mxGeometry x="710" y="1930" width="120" height="60" as="geometry" />
        </mxCell>
        <mxCell id="NYhL4l01NYYZqgJUPMba-41" value="Scheduler path" style="text;html=1;align=center;verticalAlign=middle;resizable=0;points=[];autosize=1;strokeColor=none;fillColor=none;" parent="1" vertex="1">
          <mxGeometry x="795" y="51" width="100" height="30" as="geometry" />
        </mxCell>
        <mxCell id="NYhL4l01NYYZqgJUPMba-42" value="Setup path" style="text;html=1;align=center;verticalAlign=middle;resizable=0;points=[];autosize=1;strokeColor=none;fillColor=none;" parent="1" vertex="1">
          <mxGeometry x="340" y="51" width="80" height="30" as="geometry" />
        </mxCell>
        <mxCell id="NYhL4l01NYYZqgJUPMba-51" style="edgeStyle=orthogonalEdgeStyle;rounded=0;orthogonalLoop=1;jettySize=auto;html=1;entryX=0.5;entryY=0;entryDx=0;entryDy=0;" parent="1" source="NYhL4l01NYYZqgJUPMba-43" target="NYhL4l01NYYZqgJUPMba-45" edge="1">
          <mxGeometry relative="1" as="geometry" />
        </mxCell>
        <mxCell id="NYhL4l01NYYZqgJUPMba-43" value="setup_servoAttach()" style="rounded=1;whiteSpace=wrap;html=1;" parent="1" vertex="1">
          <mxGeometry x="320" y="151" width="120" height="60" as="geometry" />
        </mxCell>
        <mxCell id="NYhL4l01NYYZqgJUPMba-52" style="edgeStyle=orthogonalEdgeStyle;rounded=0;orthogonalLoop=1;jettySize=auto;html=1;entryX=0.5;entryY=0;entryDx=0;entryDy=0;" parent="1" source="NYhL4l01NYYZqgJUPMba-45" target="NYhL4l01NYYZqgJUPMba-47" edge="1">
          <mxGeometry relative="1" as="geometry" />
        </mxCell>
        <mxCell id="NYhL4l01NYYZqgJUPMba-45" value="servo_defaultPosition()" style="rounded=1;whiteSpace=wrap;html=1;" parent="1" vertex="1">
          <mxGeometry x="310" y="240" width="140" height="60" as="geometry" />
        </mxCell>
        <mxCell id="NYhL4l01NYYZqgJUPMba-53" style="edgeStyle=orthogonalEdgeStyle;rounded=0;orthogonalLoop=1;jettySize=auto;html=1;entryX=0.5;entryY=0;entryDx=0;entryDy=0;" parent="1" source="NYhL4l01NYYZqgJUPMba-47" target="NYhL4l01NYYZqgJUPMba-48" edge="1">
          <mxGeometry relative="1" as="geometry" />
        </mxCell>
        <mxCell id="NYhL4l01NYYZqgJUPMba-47" value="setup_pinMode()" style="rounded=1;whiteSpace=wrap;html=1;" parent="1" vertex="1">
          <mxGeometry x="320" y="330" width="120" height="60" as="geometry" />
        </mxCell>
        <mxCell id="NYhL4l01NYYZqgJUPMba-54" style="edgeStyle=orthogonalEdgeStyle;rounded=0;orthogonalLoop=1;jettySize=auto;html=1;entryX=0.5;entryY=0;entryDx=0;entryDy=0;" parent="1" source="NYhL4l01NYYZqgJUPMba-48" target="NYhL4l01NYYZqgJUPMba-50" edge="1">
          <mxGeometry relative="1" as="geometry" />
        </mxCell>
        <mxCell id="NYhL4l01NYYZqgJUPMba-48" value="setup_maxLight()" style="rounded=1;whiteSpace=wrap;html=1;" parent="1" vertex="1">
          <mxGeometry x="320" y="414" width="120" height="60" as="geometry" />
        </mxCell>
        <mxCell id="NYhL4l01NYYZqgJUPMba-50" value="setup_scheduler()" style="rounded=1;whiteSpace=wrap;html=1;" parent="1" vertex="1">
          <mxGeometry x="320" y="500" width="120" height="60" as="geometry" />
        </mxCell>
        <mxCell id="NYhL4l01NYYZqgJUPMba-55" value="Execution path" style="text;html=1;align=center;verticalAlign=middle;resizable=0;points=[];autosize=1;strokeColor=none;fillColor=none;" parent="1" vertex="1">
          <mxGeometry x="330" y="616.5" width="100" height="30" as="geometry" />
        </mxCell>
        <mxCell id="NYhL4l01NYYZqgJUPMba-56" value="scheduler.execute()" style="rounded=1;whiteSpace=wrap;html=1;" parent="1" vertex="1">
          <mxGeometry x="320" y="665.5" width="120" height="60" as="geometry" />
        </mxCell>
        <mxCell id="NYhL4l01NYYZqgJUPMba-57" style="edgeStyle=orthogonalEdgeStyle;rounded=0;orthogonalLoop=1;jettySize=auto;html=1;entryX=1;entryY=0.5;entryDx=0;entryDy=0;" parent="1" source="NYhL4l01NYYZqgJUPMba-56" target="NYhL4l01NYYZqgJUPMba-56" edge="1">
          <mxGeometry relative="1" as="geometry">
            <Array as="points">
              <mxPoint x="380" y="750" />
              <mxPoint x="460" y="750" />
              <mxPoint x="460" y="696" />
            </Array>
          </mxGeometry>
        </mxCell>
        <mxCell id="NYhL4l01NYYZqgJUPMba-59" value="servo_defaultPosition()" style="rounded=1;whiteSpace=wrap;html=1;" parent="1" vertex="1">
          <mxGeometry x="702.5" y="1819" width="135" height="60" as="geometry" />
        </mxCell>
        <mxCell id="5h5dNytYStfbMjqQYCe1-36" style="edgeStyle=orthogonalEdgeStyle;rounded=0;orthogonalLoop=1;jettySize=auto;html=1;entryX=0.5;entryY=0;entryDx=0;entryDy=0;" parent="1" source="5h5dNytYStfbMjqQYCe1-2" target="5h5dNytYStfbMjqQYCe1-27" edge="1">
          <mxGeometry relative="1" as="geometry" />
        </mxCell>
        <mxCell id="5h5dNytYStfbMjqQYCe1-2" value="Task: countdown&lt;br&gt;Delay: 1 second" style="whiteSpace=wrap;html=1;" parent="1" vertex="1">
          <mxGeometry x="710" y="550" width="120" height="60" as="geometry" />
        </mxCell>
        <mxCell id="5h5dNytYStfbMjqQYCe1-6" style="edgeStyle=orthogonalEdgeStyle;rounded=0;orthogonalLoop=1;jettySize=auto;html=1;entryX=0.5;entryY=0;entryDx=0;entryDy=0;" parent="1" source="5h5dNytYStfbMjqQYCe1-3" target="NYhL4l01NYYZqgJUPMba-13" edge="1">
          <mxGeometry relative="1" as="geometry" />
        </mxCell>
        <mxCell id="5h5dNytYStfbMjqQYCe1-3" value="Task: sampling&lt;br&gt;Delay: (secondi_countdown/taglia_campione)*1secondo" style="whiteSpace=wrap;html=1;" parent="1" vertex="1">
          <mxGeometry x="860" y="550" width="270" height="60" as="geometry" />
        </mxCell>
        <mxCell id="9bgy6oww_hd9w5Q3UkcD-1" style="edgeStyle=orthogonalEdgeStyle;rounded=0;orthogonalLoop=1;jettySize=auto;html=1;entryX=1;entryY=0.5;entryDx=0;entryDy=0;" edge="1" parent="1" source="5h5dNytYStfbMjqQYCe1-9" target="NYhL4l01NYYZqgJUPMba-13">
          <mxGeometry relative="1" as="geometry">
            <Array as="points">
              <mxPoint x="1074" y="770" />
              <mxPoint x="1074" y="670" />
            </Array>
          </mxGeometry>
        </mxCell>
        <mxCell id="9bgy6oww_hd9w5Q3UkcD-2" value="True" style="edgeLabel;html=1;align=center;verticalAlign=middle;resizable=0;points=[];" vertex="1" connectable="0" parent="9bgy6oww_hd9w5Q3UkcD-1">
          <mxGeometry x="0.1191" y="2" relative="1" as="geometry">
            <mxPoint as="offset" />
          </mxGeometry>
        </mxCell>
        <mxCell id="9bgy6oww_hd9w5Q3UkcD-4" style="edgeStyle=orthogonalEdgeStyle;rounded=0;orthogonalLoop=1;jettySize=auto;html=1;entryX=0.5;entryY=0;entryDx=0;entryDy=0;" edge="1" parent="1" source="5h5dNytYStfbMjqQYCe1-9" target="9bgy6oww_hd9w5Q3UkcD-3">
          <mxGeometry relative="1" as="geometry" />
        </mxCell>
        <mxCell id="9bgy6oww_hd9w5Q3UkcD-9" value="False" style="edgeLabel;html=1;align=center;verticalAlign=middle;resizable=0;points=[];" vertex="1" connectable="0" parent="9bgy6oww_hd9w5Q3UkcD-4">
          <mxGeometry x="-0.262" relative="1" as="geometry">
            <mxPoint as="offset" />
          </mxGeometry>
        </mxCell>
        <mxCell id="5h5dNytYStfbMjqQYCe1-9" value="rilevazioni_rimaste&amp;gt;0" style="rhombus;whiteSpace=wrap;html=1;" parent="1" vertex="1">
          <mxGeometry x="924" y="730" width="140" height="80" as="geometry" />
        </mxCell>
        <mxCell id="5h5dNytYStfbMjqQYCe1-23" style="edgeStyle=orthogonalEdgeStyle;rounded=0;orthogonalLoop=1;jettySize=auto;html=1;entryX=0.5;entryY=0;entryDx=0;entryDy=0;" parent="1" source="5h5dNytYStfbMjqQYCe1-13" target="5h5dNytYStfbMjqQYCe1-21" edge="1">
          <mxGeometry relative="1" as="geometry">
            <Array as="points">
              <mxPoint x="787" y="1060" />
              <mxPoint x="857" y="1060" />
            </Array>
          </mxGeometry>
        </mxCell>
        <mxCell id="5h5dNytYStfbMjqQYCe1-13" value="stimatoreModa()" style="rounded=1;whiteSpace=wrap;html=1;" parent="1" vertex="1">
          <mxGeometry x="727.13" y="965" width="120" height="60" as="geometry" />
        </mxCell>
        <mxCell id="5h5dNytYStfbMjqQYCe1-24" style="edgeStyle=orthogonalEdgeStyle;rounded=0;orthogonalLoop=1;jettySize=auto;html=1;" parent="1" target="5h5dNytYStfbMjqQYCe1-21" edge="1">
          <mxGeometry relative="1" as="geometry">
            <mxPoint x="923" y="1026" as="sourcePoint" />
            <Array as="points">
              <mxPoint x="923" y="1026" />
              <mxPoint x="923" y="1060" />
              <mxPoint x="857" y="1060" />
            </Array>
          </mxGeometry>
        </mxCell>
        <mxCell id="5h5dNytYStfbMjqQYCe1-14" value="stimatoreRandom()" style="rounded=1;whiteSpace=wrap;html=1;" parent="1" vertex="1">
          <mxGeometry x="863.38" y="965" width="126.62" height="60" as="geometry" />
        </mxCell>
        <mxCell id="5h5dNytYStfbMjqQYCe1-25" style="edgeStyle=orthogonalEdgeStyle;rounded=0;orthogonalLoop=1;jettySize=auto;html=1;" parent="1" source="5h5dNytYStfbMjqQYCe1-15" target="5h5dNytYStfbMjqQYCe1-21" edge="1">
          <mxGeometry relative="1" as="geometry">
            <Array as="points">
              <mxPoint x="1070" y="1060" />
              <mxPoint x="857" y="1060" />
            </Array>
          </mxGeometry>
        </mxCell>
        <mxCell id="5h5dNytYStfbMjqQYCe1-15" value="stimatoreCarta()" style="rounded=1;whiteSpace=wrap;html=1;" parent="1" vertex="1">
          <mxGeometry x="1008.38" y="965" width="120" height="60" as="geometry" />
        </mxCell>
        <mxCell id="5h5dNytYStfbMjqQYCe1-26" style="edgeStyle=orthogonalEdgeStyle;rounded=0;orthogonalLoop=1;jettySize=auto;html=1;" parent="1" source="5h5dNytYStfbMjqQYCe1-16" target="5h5dNytYStfbMjqQYCe1-21" edge="1">
          <mxGeometry relative="1" as="geometry">
            <Array as="points">
              <mxPoint x="1201" y="1060" />
              <mxPoint x="857" y="1060" />
            </Array>
          </mxGeometry>
        </mxCell>
        <mxCell id="5h5dNytYStfbMjqQYCe1-16" value="stimatoreModaPesata()" style="rounded=1;whiteSpace=wrap;html=1;" parent="1" vertex="1">
          <mxGeometry x="1140.88" y="965" width="129.12" height="60" as="geometry" />
        </mxCell>
        <mxCell id="5h5dNytYStfbMjqQYCe1-39" style="edgeStyle=orthogonalEdgeStyle;rounded=0;orthogonalLoop=1;jettySize=auto;html=1;entryX=0.5;entryY=0;entryDx=0;entryDy=0;" parent="1" source="5h5dNytYStfbMjqQYCe1-21" target="5h5dNytYStfbMjqQYCe1-38" edge="1">
          <mxGeometry relative="1" as="geometry">
            <Array as="points">
              <mxPoint x="854" y="1175" />
            </Array>
          </mxGeometry>
        </mxCell>
        <mxCell id="5h5dNytYStfbMjqQYCe1-21" value="disable_sampling()" style="rounded=1;whiteSpace=wrap;html=1;" parent="1" vertex="1">
          <mxGeometry x="796.88" y="1095" width="120" height="60" as="geometry" />
        </mxCell>
        <mxCell id="5h5dNytYStfbMjqQYCe1-29" style="edgeStyle=orthogonalEdgeStyle;rounded=0;orthogonalLoop=1;jettySize=auto;html=1;entryX=0.5;entryY=0;entryDx=0;entryDy=0;" parent="1" source="5h5dNytYStfbMjqQYCe1-27" target="5h5dNytYStfbMjqQYCe1-28" edge="1">
          <mxGeometry relative="1" as="geometry" />
        </mxCell>
        <mxCell id="5h5dNytYStfbMjqQYCe1-27" value="print_countdown()" style="rounded=1;whiteSpace=wrap;html=1;" parent="1" vertex="1">
          <mxGeometry x="710" y="640" width="120" height="60" as="geometry" />
        </mxCell>
        <mxCell id="5h5dNytYStfbMjqQYCe1-30" style="edgeStyle=orthogonalEdgeStyle;rounded=0;orthogonalLoop=1;jettySize=auto;html=1;entryX=0;entryY=0.5;entryDx=0;entryDy=0;exitX=0;exitY=0.5;exitDx=0;exitDy=0;" parent="1" source="5h5dNytYStfbMjqQYCe1-28" target="5h5dNytYStfbMjqQYCe1-2" edge="1">
          <mxGeometry relative="1" as="geometry">
            <Array as="points">
              <mxPoint x="690" y="770" />
              <mxPoint x="690" y="580" />
            </Array>
          </mxGeometry>
        </mxCell>
        <mxCell id="5h5dNytYStfbMjqQYCe1-31" value="True" style="edgeLabel;html=1;align=center;verticalAlign=middle;resizable=0;points=[];" parent="5h5dNytYStfbMjqQYCe1-30" vertex="1" connectable="0">
          <mxGeometry x="0.1802" y="3" relative="1" as="geometry">
            <mxPoint as="offset" />
          </mxGeometry>
        </mxCell>
        <mxCell id="5h5dNytYStfbMjqQYCe1-34" style="edgeStyle=orthogonalEdgeStyle;rounded=0;orthogonalLoop=1;jettySize=auto;html=1;entryX=0.5;entryY=0;entryDx=0;entryDy=0;" parent="1" source="5h5dNytYStfbMjqQYCe1-28" target="5h5dNytYStfbMjqQYCe1-33" edge="1">
          <mxGeometry relative="1" as="geometry" />
        </mxCell>
        <mxCell id="5h5dNytYStfbMjqQYCe1-35" value="False" style="edgeLabel;html=1;align=center;verticalAlign=middle;resizable=0;points=[];" parent="5h5dNytYStfbMjqQYCe1-34" vertex="1" connectable="0">
          <mxGeometry x="-0.6444" y="3" relative="1" as="geometry">
            <mxPoint as="offset" />
          </mxGeometry>
        </mxCell>
        <mxCell id="5h5dNytYStfbMjqQYCe1-28" value="secondi_rimasti&amp;gt;0" style="rhombus;whiteSpace=wrap;html=1;" parent="1" vertex="1">
          <mxGeometry x="715" y="730" width="110" height="80" as="geometry" />
        </mxCell>
        <mxCell id="5h5dNytYStfbMjqQYCe1-33" value="disable_countdown()" style="rounded=1;whiteSpace=wrap;html=1;" parent="1" vertex="1">
          <mxGeometry x="710" y="840" width="120" height="60" as="geometry" />
        </mxCell>
        <mxCell id="5h5dNytYStfbMjqQYCe1-40" style="edgeStyle=orthogonalEdgeStyle;rounded=0;orthogonalLoop=1;jettySize=auto;html=1;entryX=0.5;entryY=0;entryDx=0;entryDy=0;" parent="1" source="5h5dNytYStfbMjqQYCe1-38" target="NYhL4l01NYYZqgJUPMba-16" edge="1">
          <mxGeometry relative="1" as="geometry" />
        </mxCell>
        <mxCell id="5h5dNytYStfbMjqQYCe1-38" value="enable_idle_waitButton()" style="rounded=1;whiteSpace=wrap;html=1;" parent="1" vertex="1">
          <mxGeometry x="779.4" y="1190" width="150" height="60" as="geometry" />
        </mxCell>
        <mxCell id="5h5dNytYStfbMjqQYCe1-47" style="edgeStyle=orthogonalEdgeStyle;rounded=0;orthogonalLoop=1;jettySize=auto;html=1;entryX=0.5;entryY=0;entryDx=0;entryDy=0;" parent="1" source="5h5dNytYStfbMjqQYCe1-43" target="NYhL4l01NYYZqgJUPMba-32" edge="1">
          <mxGeometry relative="1" as="geometry">
            <Array as="points">
              <mxPoint x="840" y="1695" />
              <mxPoint x="770" y="1695" />
            </Array>
          </mxGeometry>
        </mxCell>
        <mxCell id="5h5dNytYStfbMjqQYCe1-48" value="delayed(5000)" style="edgeLabel;html=1;align=center;verticalAlign=middle;resizable=0;points=[];" parent="5h5dNytYStfbMjqQYCe1-47" vertex="1" connectable="0">
          <mxGeometry x="-0.2156" y="-1" relative="1" as="geometry">
            <mxPoint as="offset" />
          </mxGeometry>
        </mxCell>
        <mxCell id="5h5dNytYStfbMjqQYCe1-50" style="edgeStyle=orthogonalEdgeStyle;rounded=0;orthogonalLoop=1;jettySize=auto;html=1;" parent="1" source="5h5dNytYStfbMjqQYCe1-43" target="5h5dNytYStfbMjqQYCe1-49" edge="1">
          <mxGeometry relative="1" as="geometry">
            <Array as="points">
              <mxPoint x="880" y="1695" />
              <mxPoint x="955" y="1695" />
            </Array>
          </mxGeometry>
        </mxCell>
        <mxCell id="5h5dNytYStfbMjqQYCe1-43" value="disable_idle_waitButton" style="rounded=1;whiteSpace=wrap;html=1;" parent="1" vertex="1">
          <mxGeometry x="784.4" y="1610" width="140" height="60" as="geometry" />
        </mxCell>
        <mxCell id="5h5dNytYStfbMjqQYCe1-49" value="print_risultati()" style="rounded=1;whiteSpace=wrap;html=1;" parent="1" vertex="1">
          <mxGeometry x="895" y="1720" width="120" height="60" as="geometry" />
        </mxCell>
        <mxCell id="9bgy6oww_hd9w5Q3UkcD-5" style="edgeStyle=orthogonalEdgeStyle;rounded=0;orthogonalLoop=1;jettySize=auto;html=1;" edge="1" parent="1" source="9bgy6oww_hd9w5Q3UkcD-3" target="5h5dNytYStfbMjqQYCe1-13">
          <mxGeometry relative="1" as="geometry">
            <Array as="points">
              <mxPoint x="994" y="930" />
              <mxPoint x="787" y="930" />
            </Array>
          </mxGeometry>
        </mxCell>
        <mxCell id="9bgy6oww_hd9w5Q3UkcD-6" style="edgeStyle=orthogonalEdgeStyle;rounded=0;orthogonalLoop=1;jettySize=auto;html=1;" edge="1" parent="1" source="9bgy6oww_hd9w5Q3UkcD-3" target="5h5dNytYStfbMjqQYCe1-14">
          <mxGeometry relative="1" as="geometry">
            <Array as="points">
              <mxPoint x="994" y="930" />
              <mxPoint x="927" y="930" />
            </Array>
          </mxGeometry>
        </mxCell>
        <mxCell id="9bgy6oww_hd9w5Q3UkcD-7" style="edgeStyle=orthogonalEdgeStyle;rounded=0;orthogonalLoop=1;jettySize=auto;html=1;entryX=0.5;entryY=0;entryDx=0;entryDy=0;" edge="1" parent="1" source="9bgy6oww_hd9w5Q3UkcD-3" target="5h5dNytYStfbMjqQYCe1-15">
          <mxGeometry relative="1" as="geometry">
            <Array as="points">
              <mxPoint x="994" y="930" />
              <mxPoint x="1068" y="930" />
            </Array>
          </mxGeometry>
        </mxCell>
        <mxCell id="9bgy6oww_hd9w5Q3UkcD-8" style="edgeStyle=orthogonalEdgeStyle;rounded=0;orthogonalLoop=1;jettySize=auto;html=1;" edge="1" parent="1" source="9bgy6oww_hd9w5Q3UkcD-3" target="5h5dNytYStfbMjqQYCe1-16">
          <mxGeometry relative="1" as="geometry">
            <Array as="points">
              <mxPoint x="994" y="930" />
              <mxPoint x="1201" y="930" />
            </Array>
          </mxGeometry>
        </mxCell>
        <mxCell id="9bgy6oww_hd9w5Q3UkcD-3" value="stimaSegno()" style="rounded=1;whiteSpace=wrap;html=1;" vertex="1" parent="1">
          <mxGeometry x="934" y="850" width="120" height="60" as="geometry" />
        </mxCell>
      </root>
    </mxGraphModel>
  </diagram>
</mxfile>
